<?xml version="1.0" encoding="utf-8"?>
<!-- Generator: Adobe Illustrator 17.0.0, SVG Export Plug-In . SVG Version: 6.00 Build 0)  -->
<!DOCTYPE svg PUBLIC "-//W3C//DTD SVG 1.1//EN" "http://www.w3.org/Graphics/SVG/1.1/DTD/svg11.dtd">
<svg version="1.1" id="Layer_1" xmlns="http://www.w3.org/2000/svg" xmlns:xlink="http://www.w3.org/1999/xlink" x="0px" y="0px"
	 width="360.156px" height="177.986px" viewBox="0 0 360.156 177.986" enable-background="new 0 0 360.156 177.986"
	 xml:space="preserve">
<g>
	<g>
		<path fill="#FFFFFF" d="M254.116,2.193c0,0,11.024-0.368,27.562-0.921c8.27-0.275,17.916-0.599,28.25-0.944
			c5.166-0.068,10.499-0.639,15.981-0.093c2.721,0.343,5.462,0.987,7.982,2.246c2.522,1.241,4.736,3.148,6.371,5.456
			c3.229,4.677,4.463,10.334,5.5,15.595c1.116,5.314,2.212,10.544,3.273,15.604s2.088,9.951,3.061,14.59
			c0.984,4.637,1.582,9.089,2.31,13.165c2.738,16.34,4.563,27.231,4.563,27.231l-1.836,0.263c0,0-1.704-10.882-4.264-27.208
			c-0.686-4.076-1.232-8.522-2.168-13.167c-0.923-4.649-1.897-9.551-2.907-14.623c-1.008-5.071-2.049-10.311-3.108-15.635
			c-0.987-5.325-2.145-10.764-5.183-15.282c-3.028-4.56-8.39-6.875-13.681-7.486c-5.34-0.595-10.711-0.087-15.875-0.07
			c-10.338,0.237-19.988,0.457-28.258,0.648C265.145,1.939,254.116,2.193,254.116,2.193z"/>
		<path fill="#FFFFFF" d="M92.202,168.545c0,0-5.018,1.15-13.8,3.157c-4.395,0.982-9.733,2.172-15.856,3.538
			c-3.068,0.656-6.33,1.357-9.769,2.094c-3.517,0.726-7.533,0.942-11.537,0.15c-8.041-1.406-16.019-7.389-19.855-16.033
			c-2.018-4.285-2.712-9.182-3.447-13.639c-0.769-4.577-1.554-9.256-2.354-14.012c-1.567-9.519-3.316-19.334-4.855-29.344
			c-1.567-10.006-3.716-20.039-5.56-30.145c-0.915-5.054-1.829-10.105-2.742-15.138c-0.453-2.517-0.906-5.03-1.357-7.535
			l-0.703-3.908c-0.11-1.308-0.366-2.418-0.347-3.896c-0.227-5.541,1.264-10.992,4.321-15.439c3.006-4.457,7.482-7.702,12.263-9.453
			c2.401-0.959,4.829-1.404,7.381-1.755c2.365-0.171,4.702-0.343,7.018-0.512c4.63-0.339,9.161-0.669,13.571-0.991
			c8.822-0.644,17.16-1.253,24.858-1.817c30.795-2.204,174.329-10.535,174.329-10.535S100.29,12.328,69.584,15.523
			c-7.677,0.788-15.993,1.639-24.79,2.543c-4.4,0.451-8.918,0.915-13.535,1.389c-2.31,0.237-4.643,0.474-6.999,0.718
			c-2.119,0.371-4.427,0.843-6.485,1.757c-4.201,1.679-7.961,4.62-10.4,8.477c-2.496,3.805-3.572,8.585-3.313,13.144
			C4.03,44.615,4.339,46,4.468,47.221l0.733,3.593c0.506,2.503,1.014,5.016,1.524,7.531c1.012,5.035,2.03,10.088,3.049,15.142
			c1.876,10.131,4.061,20.228,5.653,30.231c1.637,9.995,3.009,19.87,4.465,29.406c0.713,4.77,1.414,9.46,2.102,14.052
			c0.686,4.69,1.217,8.911,2.92,12.712c3.214,7.63,9.805,13.188,16.948,14.729c7.038,1.821,14.103-0.625,20.304-1.376
			c6.195-0.984,11.596-1.842,16.044-2.549C87.115,169.324,92.202,168.545,92.202,168.545z"/>
		<path fill="#FFFFFF" d="M358.97,94.159c0,0,0.057,0.582,0.163,1.673c0.091,1.099,0.188,2.782,0.104,4.874
			c-0.104,2.094-0.417,4.696-1.539,7.476c-1.143,2.738-3.222,5.657-6.358,7.586c-3.066,1.997-6.959,3.11-10.876,3.779
			c-3.94,0.792-8.092,1.624-12.39,2.486c-8.594,1.723-17.761,3.565-26.928,5.403c-36.695,7.217-180.389,33.972-180.389,33.972
			s143.594-27.208,180.192-34.876c9.142-1.952,18.284-3.906,26.854-5.738c4.285-0.915,8.426-1.8,12.356-2.64
			c3.972-0.733,7.501-1.827,10.326-3.699c2.85-1.806,4.639-4.419,5.653-6.906c0.984-2.528,1.258-4.948,1.33-6.923
			c0.051-1.997-0.053-3.527-0.157-4.611c-0.119-1.09-0.182-1.67-0.182-1.67L358.97,94.159z"/>
	</g>
</g>
<g>
	<g>
		<path fill="#FFFFFF" d="M74.411,110.337c-2.835,3.546-6.381,4.846-10.988,4.846c-2.244,0-4.491-0.711-6.263-1.774
			c-1.3-0.709-3.426-2.718-4.135-3.9v4.728H40.975V30.114h12.523v25.874c0.944-1.3,2.363-2.6,3.663-3.307
			c1.772-1.065,4.018-1.656,6.263-1.656c4.844,0,8.153,1.419,10.988,4.844c4.135,5.081,4.372,13.705,4.372,27.174
			S78.546,105.258,74.411,110.337z M64.486,64.733c-1.063-1.654-2.835-2.6-4.726-2.6c-1.537,0-3.191,0.589-4.253,1.654
			c-1.3,1.3-2.009,3.191-2.009,5.907v26.821c0,2.718,0.709,4.609,2.009,5.907c1.063,1.063,2.716,1.537,4.253,1.537
			c1.891,0,3.663-0.828,4.726-2.479c1.654-2.837,1.772-9.216,1.772-18.432S66.14,67.568,64.486,64.733z"/>
		<path fill="#FFFFFF" d="M88.465,44.056V30.233h13.823v13.823H88.465z M89.175,114.237V53.628h12.523v60.609H89.175z"/>
		<path fill="#FFFFFF" d="M110.912,114.237v-9.451l18.195-41.707h-16.779V51.972h30.837v9.335l-18.195,41.707h18.195v11.223
			C143.165,114.237,110.912,114.237,110.912,114.237z"/>
		<path fill="#FFFFFF" d="M159.584,110.455c-2.6-2.6-3.898-6.379-3.898-11.223V58.589h-7.679v-3.663h7.679V36.731h4.488v18.195
			h10.87v3.663h-10.87v40.881c0,7.681,4.135,10.753,11.46,10.753v4.016C167.146,114.237,162.893,113.765,159.584,110.455z"/>
		<path fill="#FFFFFF" d="M198.335,57.998c-7.56,0-12.053,4.607-12.053,12.051v44.188h-4.486V54.926h4.486v6.263
			c0.358-1.065,1.421-2.718,2.009-3.309c2.6-2.835,6.263-3.898,10.514-3.898V58h-0.47V57.998z"/>
		<path fill="#FFFFFF" d="M227.87,114.237v-5.551c-0.709,1.651-2.244,3.307-3.072,4.016c-1.891,1.537-4.016,2.483-7.323,2.483
			c-3.309,0-6.379-1.181-8.744-3.546c-2.128-2.244-4.016-6.853-4.016-13.47c0-5.67,1.654-10.514,4.844-13.467
			c2.953-2.716,6.142-3.898,10.988-3.898h7.323V69.225c0-7.325-2.953-11.342-9.098-11.342c-2.479,0-4.488,0.944-5.907,2.363
			c-2.244,2.244-2.953,4.844-2.953,9.333h-4.488c0-4.372,0.826-8.744,4.016-11.932c2.363-2.363,5.198-3.663,9.333-3.663
			c4.488,0,7.681,1.3,9.807,3.426c2.602,2.6,3.781,6.144,3.781,11.697v45.132h-4.491V114.237z M227.87,84.581h-7.56
			c-3.188,0-5.433,0.826-7.56,2.835c-2.244,2.128-3.542,6.144-3.542,10.751c0,7.8,2.716,12.997,9.098,12.997
			c5.907,0,9.568-5.198,9.568-11.816V84.581H227.87z"/>
		<path fill="#FFFFFF" d="M269.335,111.518c-2.479,2.483-5.788,3.665-9.807,3.665c-4.016,0-7.56-1.656-9.807-4.137
			c-3.542-3.898-4.488-10.986-4.488-26.465c0-15.477,0.946-22.567,4.488-26.465c2.244-2.481,5.791-4.135,9.807-4.135
			c4.253,0,7.442,1.063,9.807,3.426c3.426,3.426,3.781,7.916,3.781,12.523h-4.37c0-3.426-0.119-6.851-2.6-9.451
			c-1.656-1.772-3.781-2.479-6.498-2.479c-2.837,0-5.081,1.181-6.498,2.716c-3.072,3.426-3.426,9.688-3.426,23.867
			s0.354,20.439,3.426,23.865c1.416,1.537,3.663,2.718,6.498,2.718c2.363,0,4.609-0.709,6.261-2.363
			c2.363-2.361,2.837-5.551,2.837-9.568h4.37C273.114,104.904,272.172,108.565,269.335,111.518z"/>
		<path fill="#FFFFFF" d="M312.809,114.237l-13.944-33.2l-8.74,14.06v19.139h-4.493V30.114h4.493v58.13l20.202-33.318h5.081
			l-13.707,22.449l16.067,36.862H312.809z"/>
	</g>
</g>
</svg>
